<?xml version="1.0" encoding="UTF-8"?>
<svg version="1.1" xmlns="http://www.w3.org/2000/svg" width="381" height="156">
<path d="M0 0 C5.61 0 11.22 0 17 0 C20.70193427 10.47880854 24.40062669 20.95875543 28.09686279 31.4395752 C29.0123522 34.03501892 29.92826334 36.63031353 30.84423828 39.22558594 C32.35631961 43.51033535 33.86667967 47.7956882 35.37588501 52.08145142 C35.95929878 53.73738676 36.54326414 55.39312787 37.1277771 57.04867554 C37.94602161 59.36657383 38.76231505 61.68515017 39.578125 64.00390625 C39.82442154 64.70023163 40.07071808 65.39655701 40.32447815 66.11398315 C42 70.8859077 42 70.8859077 42 72 C36.72 72 31.44 72 26 72 C24.35 67.38 22.7 62.76 21 58 C19.494375 58.020625 17.98875 58.04125 16.4375 58.0625 C9.26393541 58.07186497 2.14991625 57.54034455 -5 57 C-5.12117188 57.58007812 -5.24234375 58.16015625 -5.3671875 58.7578125 C-5.53476563 59.53898437 -5.70234375 60.32015625 -5.875 61.125 C-6.03742188 61.89070313 -6.19984375 62.65640625 -6.3671875 63.4453125 C-7.08455253 66.34134171 -8.05651721 69.16955163 -9 72 C-14.28 72 -19.56 72 -25 72 C-22.83109752 64.59245548 -20.43903632 57.29181024 -17.91015625 50 C-17.52435898 48.88367188 -17.13856171 47.76734375 -16.74107361 46.6171875 C-15.92939899 44.27047899 -15.11668439 41.92412996 -14.30297852 39.578125 C-13.06650596 36.01155509 -11.83480668 32.44336156 -10.60351562 28.875 C-9.81018343 26.58323376 -9.01657289 24.29156384 -8.22265625 22 C-7.85898453 20.94554688 -7.49531281 19.89109375 -7.12062073 18.8046875 C-4.91533023 12.46019494 -2.54010801 6.21828157 0 0 Z M8 18 C6.65934762 21.93504649 5.32873929 25.87341646 4 29.8125 C3.42765625 31.49182617 3.42765625 31.49182617 2.84375 33.20507812 C2.4828125 34.27822266 2.121875 35.35136719 1.75 36.45703125 C1.41484375 37.44678955 1.0796875 38.43654785 0.734375 39.45629883 C-0.13868755 42.03911618 -0.13868755 42.03911618 0 45 C5.61 45 11.22 45 17 45 C15.68764148 38.63569826 13.98780585 32.57878972 11.875 26.4375 C11.59785156 25.61958984 11.32070312 24.80167969 11.03515625 23.95898438 C10.36094863 21.97123432 9.68107796 19.98540651 9 18 C8.67 18 8.34 18 8 18 Z " fill="#6324B5" transform="translate(71,36)"/>
<path d="M0 0 C6.8550228 4.15031993 10.37295261 10.07721468 12.8671875 17.53125 C13.48720097 20.96851764 13.3125 24.50726103 13.3125 28 C0.1125 28 -13.0875 28 -26.6875 28 C-24.03388465 35.74505009 -24.03388465 35.74505009 -18.6875 40 C-14.62886867 41.05223775 -12.39920686 41.26004674 -8.4375 39.8125 C-5.62289302 38.25605242 -5.62289302 38.25605242 -4.49609375 35.90234375 C-2.6875 34 -2.6875 34 0.88671875 33.609375 C2.25835748 33.6358801 3.62971938 33.6834691 5 33.75 C5.70189453 33.76804688 6.40378906 33.78609375 7.12695312 33.8046875 C8.85605436 33.85173787 10.58445205 33.92348127 12.3125 34 C9.82569669 41.59129432 6.95834336 46.70699903 0 50.875 C-7.51278045 54.35022329 -16.59232184 54.31218287 -24.5390625 52.265625 C-32.14266819 49.16315044 -37.10942825 43.26623801 -40.6875 36 C-43.11734326 26.49457542 -41.94072208 17.77314786 -37.6875 9 C-29.92712133 -3.3253073 -12.77258738 -5.68099953 0 0 Z M-23.6875 12 C-25.9648501 14.81509993 -25.9648501 14.81509993 -25.6875 18 C-17.7675 18 -9.8475 18 -1.6875 18 C-3.92648599 12.26902405 -3.92648599 12.26902405 -8.6875 9 C-14.26611303 8.17421847 -19.21767794 8.22858764 -23.6875 12 Z " fill="#49398A" transform="translate(282.6875,56)"/>
<path d="M0 0 C4.62 0 9.24 0 14 0 C14.06058594 2.145 14.12117187 4.29 14.18359375 6.5 C14.2455886 8.60175386 14.30889059 10.70346462 14.37231445 12.80517578 C14.41534491 14.25402915 14.45703893 15.7029229 14.49731445 17.15185547 C14.11390605 29.4631637 14.11390605 29.4631637 17.0625 41 C20.27643569 42.65880552 23.52189601 42.64513219 27 42 C29.96858157 39.79259319 30.82865791 38.51402627 32 35 C32.15346953 32.34393699 32.25717898 29.70904905 32.31640625 27.05078125 C32.33718735 26.27816452 32.35796844 25.50554779 32.37937927 24.70951843 C32.44471038 22.2439352 32.50368315 19.77824639 32.5625 17.3125 C32.60570087 15.63996309 32.64931566 13.96743681 32.69335938 12.29492188 C32.8003749 8.1967225 32.90168857 4.09841704 33 0 C37.62 0 42.24 0 47 0 C47 17.49 47 34.98 47 53 C42.38 53 37.76 53 33 53 C32.67 52.01 32.34 51.02 32 50 C31.29875 50.66 30.5975 51.32 29.875 52 C24.63652579 55.50065102 17.99198694 54.67662716 12 54 C7.64365293 52.762651 4.99337892 50.38192797 2.625 46.5625 C-0.04690767 40.70485626 -0.13818528 35.52360616 -0.09765625 29.19921875 C-0.0962413 28.36284378 -0.09482635 27.52646881 -0.09336853 26.66474915 C-0.08779184 24.005629 -0.07524365 21.3465945 -0.0625 18.6875 C-0.05748199 16.87955851 -0.05291961 15.0716157 -0.04882812 13.26367188 C-0.03783004 8.84241516 -0.0205815 4.42122207 0 0 Z " fill="#9E3BA2" transform="translate(138,55)"/>
<path d="M0 0 C5.28 0 10.56 0 16 0 C18.97 9.24 21.94 18.48 25 28 C26.9387717 25.09184246 27.84188468 22.79244637 28.91015625 19.4921875 C29.26013672 18.42355469 29.61011719 17.35492188 29.97070312 16.25390625 C30.33099609 15.13886719 30.69128906 14.02382812 31.0625 12.875 C31.77987709 10.66319311 32.49979027 8.4522066 33.22265625 6.2421875 C33.53984619 5.2610498 33.85703613 4.27991211 34.18383789 3.26904297 C35 1 35 1 36 0 C38.53049402 -0.07313567 41.03304837 -0.09247527 43.5625 -0.0625 C44.62887695 -0.05573242 44.62887695 -0.05573242 45.71679688 -0.04882812 C47.47790013 -0.03700864 49.23896036 -0.01907263 51 0 C49.01694615 6.9115523 46.73880361 13.65436323 44.20703125 20.3828125 C43.85613937 21.32309296 43.5052475 22.26337341 43.14372253 23.23214722 C42.03631726 26.19756417 40.9244907 29.16129989 39.8125 32.125 C39.05504398 34.15093156 38.29787981 36.17697226 37.54101562 38.203125 C35.69737873 43.13668363 33.84977827 48.0687409 32 53 C27.71 53 23.42 53 19 53 C16.61458903 46.41669238 14.23017663 39.83302428 11.84667969 33.24902344 C11.03608033 31.01031778 10.22521053 28.77171003 9.4140625 26.53320312 C8.2466801 23.31145659 7.08027792 20.08935662 5.9140625 16.8671875 C5.55253082 15.87008759 5.19099915 14.87298767 4.81851196 13.84567261 C4.47831024 12.90515045 4.13810852 11.9646283 3.78759766 10.99560547 C3.34125473 9.76316605 3.34125473 9.76316605 2.88589478 8.50582886 C1.887937 5.68302025 0.94679291 2.84037873 0 0 Z " fill="#DE308E" transform="translate(189,55)"/>
<path d="M0 0 C0.02686553 1.97909398 0.04633375 3.95828971 0.0625 5.9375 C0.07410156 7.03964844 0.08570313 8.14179687 0.09765625 9.27734375 C0 12 0 12 -1 13 C-2.60120333 13.26832551 -4.20609641 13.51480182 -5.8125 13.75 C-9.48314656 14.45266663 -10.75017286 14.76845289 -13.5625 17.375 C-16.03185706 21.88426072 -16.16461117 25.83546221 -16.31640625 30.953125 C-16.33718735 31.61334656 -16.35796844 32.27356812 -16.37937927 32.95379639 C-16.44450147 35.05243015 -16.50358502 37.15118372 -16.5625 39.25 C-16.60572079 40.67709547 -16.6493362 42.10417905 -16.69335938 43.53125 C-16.80088351 47.02071259 -16.90023285 50.51027257 -17 54 C-21.62 54 -26.24 54 -31 54 C-31 36.51 -31 19.02 -31 1 C-26.38 1 -21.76 1 -17 1 C-16.67 1.99 -16.34 2.98 -16 4 C-15.21625 3.34 -14.4325 2.68 -13.625 2 C-9.38807768 -0.89251428 -4.93324584 -0.35098192 0 0 Z " fill="#053C8B" transform="translate(333,54)"/>
<path d="M0 0 C4.62 0 9.24 0 14 0 C14 17.49 14 34.98 14 53 C9.38 53 4.76 53 0 53 C0 35.51 0 18.02 0 0 Z " fill="#BF318E" transform="translate(116,55)"/>
<path d="M0 0 C4.62 0 9.24 0 14 0 C14 17.49 14 34.98 14 53 C9.38 53 4.76 53 0 53 C0 51.68 0 50.36 0 49 C1.485 49.495 1.485 49.495 3 50 C3 50.66 3 51.32 3 52 C5.97 52 8.94 52 12 52 C12 35.17 12 18.34 12 1 C8.7 1 5.4 1 2 1 C2.33 12.22 2.66 23.44 3 35 C2.34 35 1.68 35 1 35 C0.67 36.98 0.34 38.96 0 41 C-0.66 41 -1.32 41 -2 41 C-2 41.66 -2 42.32 -2 43 C-2.7425 43.28875 -3.485 43.5775 -4.25 43.875 C-6.94874309 44.92081478 -6.94874309 44.92081478 -9.1875 46.1875 C-9.785625 46.455625 -10.38375 46.72375 -11 47 C-11.66 46.67 -12.32 46.34 -13 46 C-13 45.34 -13 44.68 -13 44 C-14.32 43.34 -15.64 42.68 -17 42 C-17 41.01 -17 40.02 -17 39 C-16.67 39.495 -16.34 39.99 -16 40.5 C-13.38837534 42.4587185 -11.14332185 42.4772361 -7.9375 42.359375 C-4.96448621 41.80792889 -3.71958879 40.40742431 -2 38 C-0.77681134 34.33043403 -0.76883876 30.87678997 -0.68359375 27.05078125 C-0.66281265 26.27816452 -0.64203156 25.50554779 -0.62062073 24.70951843 C-0.55528962 22.2439352 -0.49631685 19.77824639 -0.4375 17.3125 C-0.39429913 15.63996309 -0.35068434 13.96743681 -0.30664062 12.29492188 C-0.1996251 8.1967225 -0.09831143 4.09841704 0 0 Z " fill="#944596" transform="translate(171,55)"/>
<path d="M0 0 C2.625 2.125 2.625 2.125 4 5 C3.93353155 8.32342272 3.63865125 10.19474408 1.5625 12.8125 C-1.65269326 15.25604688 -3.99946087 15.39220972 -8 15 C-10.875 13.4375 -10.875 13.4375 -13 11 C-13.6269883 7.09873948 -13.57975697 4.98306617 -11.5625 1.5625 C-7.76789601 -0.75128292 -4.32502392 -0.91094826 0 0 Z " fill="#BF308C" transform="translate(128,35)"/>
<path d="M0 0 C1.65896486 2.48844729 2.5521793 4.24181106 3.51220703 6.99658203 C3.7923465 7.79395782 4.07248596 8.59133362 4.3611145 9.41287231 C4.65702484 10.26920258 4.95293518 11.12553284 5.2578125 12.0078125 C5.56572723 12.88903778 5.87364197 13.77026306 6.19088745 14.67819214 C6.84001875 16.53851322 7.48711574 18.39954521 8.13232422 20.26123047 C9.1240833 23.1223554 10.12203885 25.98125922 11.12109375 28.83984375 C11.75036272 30.64570698 12.37928114 32.45169241 13.0078125 34.2578125 C13.3077713 35.11819122 13.6077301 35.97856995 13.91677856 36.86502075 C16 42.88315642 16 42.88315642 16 44 C10.72 44 5.44 44 0 44 C0 43.67 0 43.34 0 43 C5.445 42.505 5.445 42.505 11 42 C10.690625 40.5975 10.38125 39.195 10.0625 37.75 C9.88847656 36.96109375 9.71445313 36.1721875 9.53515625 35.359375 C9.35855469 34.58078125 9.18195313 33.8021875 9 33 C8.86464844 32.39027344 8.72929688 31.78054687 8.58984375 31.15234375 C7.72129401 27.98299998 6.60755584 24.90416301 5.5 21.8125 C5.27441406 21.17119141 5.04882812 20.52988281 4.81640625 19.86914062 C3.8410676 16.68614746 3.8410676 16.68614746 2 14 C0.69351568 9.38439116 -0.31080611 4.8174947 0 0 Z " fill="#61339D" transform="translate(97,64)"/>
<path d="M0 0 C3.3 0 6.6 0 10 0 C9.67 2.31 9.34 4.62 9 7 C7.329375 7.2165625 7.329375 7.2165625 5.625 7.4375 C2.17857953 7.78372035 2.17857953 7.78372035 0 9 C-0.66 8.34 -1.32 7.68 -2 7 C-1.60467975 4.54901444 -0.78698574 2.36095721 0 0 Z " fill="#4B3891" transform="translate(282,91)"/>
<path d="M0 0 C0.33 0 0.66 0 1 0 C1 17.49 1 34.98 1 53 C-3.62 53 -8.24 53 -13 53 C-13 51.68 -13 50.36 -13 49 C-12.01 49.33 -11.02 49.66 -10 50 C-10 50.66 -10 51.32 -10 52 C-6.7 52 -3.4 52 0 52 C0 34.84 0 17.68 0 0 Z " fill="#8C4B8E" transform="translate(184,55)"/>
<path d="M0 0 C2.34626011 1.16812381 4.52607121 2.38289681 6.68359375 3.8671875 C5.36359375 4.1971875 4.04359375 4.5271875 2.68359375 4.8671875 C2.68359375 4.2071875 2.68359375 3.5471875 2.68359375 2.8671875 C-8.61489018 -0.09634927 -17.03646919 -0.314904 -27.25390625 5.5546875 C-27.93453125 5.9878125 -28.61515625 6.4209375 -29.31640625 6.8671875 C-29.64640625 5.8771875 -29.97640625 4.8871875 -30.31640625 3.8671875 C-21.40462219 -2.26376959 -10.23462926 -3.49592755 0 0 Z " fill="#433776" transform="translate(280.31640625,55.1328125)"/>
<path d="M0 0 C0.103125 0.598125 0.20625 1.19625 0.3125 1.8125 C1.08876455 4.28243264 2.07088921 5.32251235 4 7 C2.625 8.5 2.625 8.5 1 10 C0.34 10 -0.32 10 -1 10 C-1.33 11.65 -1.66 13.3 -2 15 C1.96 15 5.92 15 10 15 C10 13.35 10 11.7 10 10 C10.66 10 11.32 10 12 10 C11.67 11.98 11.34 13.96 11 16 C5.72 16 0.44 16 -5 16 C-3.40615011 10.63886855 -1.8106711 5.29273092 0 0 Z " fill="#5D2D9F" transform="translate(51,92)"/>
<path d="M0 0 C0.66 0 1.32 0 2 0 C2.061875 0.61875 2.12375 1.2375 2.1875 1.875 C2.80373672 4.19599991 2.80373672 4.19599991 5.109375 5.08203125 C8.46429589 6.14744532 11.55424376 6.53108907 15.0625 6.8125 C16.87427734 6.97685547 16.87427734 6.97685547 18.72265625 7.14453125 C22.3667607 6.98382581 23.28293478 6.24505835 26 4 C26.99 4.33 27.98 4.66 29 5 C24.90618063 8.85300647 21.67462384 9.35655914 16.0625 9.5 C10.15089668 9.31896885 6.5452697 8.82215861 2 5 C0.5625 2.25 0.5625 2.25 0 0 Z " fill="#944397" transform="translate(141,100)"/>
<path d="M0 0 C0.02686553 1.97909398 0.04633375 3.95828971 0.0625 5.9375 C0.07410156 7.03964844 0.08570313 8.14179687 0.09765625 9.27734375 C0 12 0 12 -1 13 C-3.67058851 13.14115161 -6.32432238 13.04247107 -9 13 C-9 12.67 -9 12.34 -9 12 C-5.535 11.505 -5.535 11.505 -2 11 C-1.67 7.7 -1.34 4.4 -1 1 C-2.44375 1.28875 -3.8875 1.5775 -5.375 1.875 C-6.18710937 2.03742187 -6.99921875 2.19984375 -7.8359375 2.3671875 C-10.18673923 2.86658932 -10.18673923 2.86658932 -12 5 C-14.125 4.625 -14.125 4.625 -16 4 C-10.77531236 -0.39973696 -6.69286912 -0.47617251 0 0 Z " fill="#183F77" transform="translate(333,54)"/>
<path d="M0 0 C1.82701527 6.36687138 0.1046711 13.22849603 -3 19 C-3.99 19.66 -4.98 20.32 -6 21 C-4.55613874 13.78069368 -2.42211826 6.94889267 0 0 Z " fill="#CE408B" transform="translate(223,59)"/>
<path d="M0 0 C4.62 0 9.24 0 14 0 C14 0.33 14 0.66 14 1 C10.04 1 6.08 1 2 1 C1.67 2.32 1.34 3.64 1 5 C0.505 5.94875 0.01 6.8975 -0.5 7.875 C-1.99782936 10.99547783 -2.59318627 13.58276463 -3 17 C-3.66 16.67 -4.32 16.34 -5 16 C-4.38900618 10.1955587 -2.23783536 5.34192958 0 0 Z " fill="#572B96" transform="translate(71,36)"/>
<path d="M0 0 C0.66 0 1.32 0 2 0 C3.85989732 3.63525385 5.47903372 7.19758429 7 11 C1.72 11 -3.56 11 -9 11 C-9 10.67 -9 10.34 -9 10 C-3.555 9.505 -3.555 9.505 2 9 C1.34 6.03 0.68 3.06 0 0 Z " fill="#5E29A2" transform="translate(106,97)"/>
<path d="M0 0 C0.66 0 1.32 0 2 0 C2 0.66 2 1.32 2 2 C2.66 2 3.32 2 4 2 C4.268125 2.969375 4.53625 3.93875 4.8125 4.9375 C5.6415965 7.87810843 6.6070257 10.74475992 7.625 13.625 C8.72741086 16.86575554 9.33484809 19.53990305 9 23 C7.22348795 20.33523193 6.29988696 18.31633801 5.2734375 15.33203125 C4.9640625 14.43935547 4.6546875 13.54667969 4.3359375 12.62695312 C4.01882812 11.69818359 3.70171875 10.76941406 3.375 9.8125 C3.05015625 8.87212891 2.7253125 7.93175781 2.390625 6.96289062 C1.58992448 4.64321411 0.79320965 2.32224648 0 0 Z " fill="#C8448A" transform="translate(189,55)"/>
<path d="M0 0 C0.66 0.33 1.32 0.66 2 1 C1.835 2.093125 1.67 3.18625 1.5 4.3125 C0.93281816 7.87525873 0.93281816 7.87525873 1 11 C2.6396875 11.2165625 2.6396875 11.2165625 4.3125 11.4375 C8 12 8 12 11 13 C8.14675563 14.42662219 6.16545451 14.31033868 3 14 C0.125 12.4375 0.125 12.4375 -2 10 C-2.54226552 5.58440935 -2.48836965 3.73255448 0 0 Z " fill="#AF4285" transform="translate(117,36)"/>
<path d="M0 0 C5.28 0.33 10.56 0.66 16 1 C16 1.33 16 1.66 16 2 C11.38 2 6.76 2 2 2 C1.34 4.97 0.68 7.94 0 11 C-2 7 -2 7 0 0 Z " fill="#5B2B9B" transform="translate(64,91)"/>
<path d="M0 0 C2.64 0 5.28 0 8 0 C8.66 2.97 9.32 5.94 10 9 C9.01 9 8.02 9 7 9 C6.67 8.01 6.34 7.02 6 6 C5.01 5.34 4.02 4.68 3 4 C3.99 4 4.98 4 6 4 C6 3.01 6 2.02 6 1 C4.02 1 2.04 1 0 1 C0 0.67 0 0.34 0 0 Z " fill="#D23888" transform="translate(197,55)"/>
<path d="M0 0 C1.9375 0.8125 1.9375 0.8125 4 2 C4.33 2.99 4.66 3.98 5 5 C8.22697129 7.97874273 11.97952434 9.37634637 16 11 C13 12 13 12 10.125 10.875 C5.54039892 8.12423935 2.04411121 5.01736387 0 0 Z " fill="#453977" transform="translate(245,96)"/>
<path d="M0 0 C-1.875 5.875 -1.875 5.875 -3 7 C-4.99958364 7.04080783 -7.00045254 7.04254356 -9 7 C-8.01 6.67 -7.02 6.34 -6 6 C-5.67 4.35 -5.34 2.7 -5 1 C-2 0 -2 0 0 0 Z " fill="#D93489" transform="translate(223,100)"/>
<path d="M0 0 C2.125 0.9375 2.125 0.9375 4 2 C0.375 6.875 0.375 6.875 -3 8 C-2.74438677 5.6568787 -2.40729228 3.32156597 -2 1 C-1.34 0.67 -0.68 0.34 0 0 Z " fill="#45367F" transform="translate(287,97)"/>
<path d="M0 0 C0.99 0.33 1.98 0.66 3 1 C-2.20506467 5.89888439 -7.22989161 5.34116256 -14.1484375 5.140625 C-15.08945313 5.09421875 -16.03046875 5.0478125 -17 5 C-17 4.67 -17 4.34 -17 4 C-15.66195312 3.94392578 -15.66195312 3.94392578 -14.296875 3.88671875 C-13.12640625 3.82097656 -11.9559375 3.75523438 -10.75 3.6875 C-9.58984375 3.62949219 -8.4296875 3.57148437 -7.234375 3.51171875 C-3.82284292 2.97197152 -2.63274203 2.07940023 0 0 Z " fill="#87468A" transform="translate(167,104)"/>
<path d="M0 0 C1.63996535 5.36502951 -0.28832845 9.49454095 -2.625 14.4375 C-3.305625 15.7059375 -3.305625 15.7059375 -4 17 C-5.3274855 13.01754349 -3.99907829 10.55210457 -2.5625 6.8125 C-2.19801758 5.83120117 -2.19801758 5.83120117 -1.82617188 4.83007812 C-1.2256707 3.21696714 -0.61390797 1.6080565 0 0 Z " fill="#562E96" transform="translate(65,52)"/>
<path d="M0 0 C-0.33 0.66 -0.66 1.32 -1 2 C-4.3 1.67 -7.6 1.34 -11 1 C-11 0.34 -11 -0.32 -11 -1 C-6.58937864 -2.0257259 -4.07369424 -2.03684712 0 0 Z " fill="#5B289C" transform="translate(93,92)"/>
<path d="M0 0 C0.66 0.33 1.32 0.66 2 1 C1.67558396 2.66842534 1.34060811 4.33480481 1 6 C0.87625 6.7425 0.7525 7.485 0.625 8.25 C0.41875 8.8275 0.2125 9.405 0 10 C-0.99 10.33 -1.98 10.66 -3 11 C-2.01 7.37 -1.02 3.74 0 0 Z " fill="#5B2E9F" transform="translate(59,69)"/>
<path d="M0 0 C1 3 1 3 0 6 C1.65 6 3.3 6 5 6 C4.67 6.66 4.34 7.32 4 8 C2.35 7.67 0.7 7.34 -1 7 C-1.33 5.02 -1.66 3.04 -2 1 C-1.34 0.67 -0.68 0.34 0 0 Z " fill="#602FA1" transform="translate(71,75)"/>
<path d="" fill="#FFFFFF" transform="translate(0,0)"/>
<path d="" fill="#FFFFFF" transform="translate(0,0)"/>
<path d="" fill="#FFFFFF" transform="translate(0,0)"/>
<path d="" fill="#FFFFFF" transform="translate(0,0)"/>
<path d="" fill="#FFFFFF" transform="translate(0,0)"/>
<path d="" fill="#FFFFFF" transform="translate(0,0)"/>
<path d="" fill="#FFFFFF" transform="translate(0,0)"/>
<path d="" fill="#FFFFFF" transform="translate(0,0)"/>
<path d="" fill="#FFFFFF" transform="translate(0,0)"/>
<path d="" fill="#FFFFFF" transform="translate(0,0)"/>
<path d="" fill="#FFFFFF" transform="translate(0,0)"/>
<path d="" fill="#FFFFFF" transform="translate(0,0)"/>
<path d="" fill="#FFFFFF" transform="translate(0,0)"/>
<path d="" fill="#FFFFFF" transform="translate(0,0)"/>
<path d="" fill="#FFFFFF" transform="translate(0,0)"/>
<path d="" fill="#FFFFFF" transform="translate(0,0)"/>
<path d="" fill="#FFFFFF" transform="translate(0,0)"/>
<path d="" fill="#FFFFFF" transform="translate(0,0)"/>
<path d="" fill="#FFFFFF" transform="translate(0,0)"/>
<path d="" fill="#FFFFFF" transform="translate(0,0)"/>
<path d="" fill="#FFFFFF" transform="translate(0,0)"/>
<path d="" fill="#FFFFFF" transform="translate(0,0)"/>
<path d="" fill="#FFFFFF" transform="translate(0,0)"/>
<path d="" fill="#FFFFFF" transform="translate(0,0)"/>
<path d="" fill="#FFFFFF" transform="translate(0,0)"/>
<path d="" fill="#FFFFFF" transform="translate(0,0)"/>
<path d="" fill="#FFFFFF" transform="translate(0,0)"/>
<path d="" fill="#FFFFFF" transform="translate(0,0)"/>
<path d="" fill="#FFFFFF" transform="translate(0,0)"/>
<path d="" fill="#FFFFFF" transform="translate(0,0)"/>
<path d="" fill="#FFFFFF" transform="translate(0,0)"/>
<path d="" fill="#FFFFFF" transform="translate(0,0)"/>
<path d="" fill="#FFFFFF" transform="translate(0,0)"/>
<path d="" fill="#FFFFFF" transform="translate(0,0)"/>
<path d="" fill="#FFFFFF" transform="translate(0,0)"/>
<path d="" fill="#FFFFFF" transform="translate(0,0)"/>
<path d="" fill="#FFFFFF" transform="translate(0,0)"/>
<path d="" fill="#FFFFFF" transform="translate(0,0)"/>
<path d="" fill="#FFFFFF" transform="translate(0,0)"/>
<path d="" fill="#FFFFFF" transform="translate(0,0)"/>
<path d="" fill="#FFFFFF" transform="translate(0,0)"/>
<path d="" fill="#FFFFFF" transform="translate(0,0)"/>
<path d="" fill="#FFFFFF" transform="translate(0,0)"/>
<path d="" fill="#FFFFFF" transform="translate(0,0)"/>
<path d="" fill="#FFFFFF" transform="translate(0,0)"/>
<path d="" fill="#FFFFFF" transform="translate(0,0)"/>
<path d="" fill="#FFFFFF" transform="translate(0,0)"/>
<path d="" fill="#FFFFFF" transform="translate(0,0)"/>
<path d="" fill="#FFFFFF" transform="translate(0,0)"/>
<path d="" fill="#FFFFFF" transform="translate(0,0)"/>
<path d="" fill="#FFFFFF" transform="translate(0,0)"/>
<path d="" fill="#FFFFFF" transform="translate(0,0)"/>
<path d="" fill="#FFFFFF" transform="translate(0,0)"/>
<path d="" fill="#FFFFFF" transform="translate(0,0)"/>
<path d="" fill="#FFFFFF" transform="translate(0,0)"/>
<path d="" fill="#FFFFFF" transform="translate(0,0)"/>
<path d="" fill="#FFFFFF" transform="translate(0,0)"/>
<path d="" fill="#FFFFFF" transform="translate(0,0)"/>
<path d="" fill="#FFFFFF" transform="translate(0,0)"/>
<path d="" fill="#FFFFFF" transform="translate(0,0)"/>
<path d="" fill="#FFFFFF" transform="translate(0,0)"/>
<path d="" fill="#FFFFFF" transform="translate(0,0)"/>
<path d="" fill="#FFFFFF" transform="translate(0,0)"/>
<path d="" fill="#FFFFFF" transform="translate(0,0)"/>
<path d="" fill="#FFFFFF" transform="translate(0,0)"/>
<path d="" fill="#FFFFFF" transform="translate(0,0)"/>
<path d="" fill="#FFFFFF" transform="translate(0,0)"/>
<path d="" fill="#FFFFFF" transform="translate(0,0)"/>
<path d="" fill="#FFFFFF" transform="translate(0,0)"/>
<path d="" fill="#FFFFFF" transform="translate(0,0)"/>
<path d="" fill="#FFFFFF" transform="translate(0,0)"/>
<path d="" fill="#FFFFFF" transform="translate(0,0)"/>
<path d="" fill="#FFFFFF" transform="translate(0,0)"/>
<path d="" fill="#FFFFFF" transform="translate(0,0)"/>
<path d="" fill="#FFFFFF" transform="translate(0,0)"/>
<path d="" fill="#FFFFFF" transform="translate(0,0)"/>
<path d="" fill="#FFFFFF" transform="translate(0,0)"/>
<path d="" fill="#FFFFFF" transform="translate(0,0)"/>
<path d="" fill="#FFFFFF" transform="translate(0,0)"/>
<path d="" fill="#00FFFF" transform="translate(0,0)"/>
<path d="" fill="#FFFFFF" transform="translate(0,0)"/>
<path d="" fill="#FFFFFF" transform="translate(0,0)"/>
<path d="" fill="#FFFFFF" transform="translate(0,0)"/>
<path d="" fill="#FFFFFF" transform="translate(0,0)"/>
</svg>
